ISO-10303-21;
HEADER;
/* Generated by software containing ST-Developer
 * from STEP Tools, Inc. (www.steptools.com) 
 */

FILE_DESCRIPTION(
/* description */ (''),
/* implementation_level */ '2;1');

FILE_NAME(
/* name */ 'dorppadback.step',
/* time_stamp */ '2026-02-03T23:14:09+05:30',
/* author */ (''),
/* organization */ (''),
/* preprocessor_version */ 'ST-DEVELOPER v20.1',
/* originating_system */ 'Autodesk Translation Framework v14.24.0.0',
/* authorisation */ '');

FILE_SCHEMA (('AUTOMOTIVE_DESIGN { 1 0 10303 214 3 1 1 }'));
ENDSEC;

DATA;
#10=MECHANICAL_DESIGN_GEOMETRIC_PRESENTATION_REPRESENTATION('',(#13),#923);
#11=SHAPE_REPRESENTATION_RELATIONSHIP('SRR','None',#930,#12);
#12=ADVANCED_BREP_SHAPE_REPRESENTATION('',(#14),#922);
#13=STYLED_ITEM('',(#939),#14);
#14=MANIFOLD_SOLID_BREP('Body1',#543);
#15=CYLINDRICAL_SURFACE('',#570,5.);
#16=CYLINDRICAL_SURFACE('',#581,5.);
#17=CYLINDRICAL_SURFACE('',#583,5.);
#18=CYLINDRICAL_SURFACE('',#584,5.);
#19=CYLINDRICAL_SURFACE('',#588,3.);
#20=CYLINDRICAL_SURFACE('',#590,3.);
#21=CYLINDRICAL_SURFACE('',#592,3.00000000000001);
#22=CYLINDRICAL_SURFACE('',#594,3.00000000000001);
#23=CYLINDRICAL_SURFACE('',#599,1.7);
#24=CYLINDRICAL_SURFACE('',#602,1.7);
#25=CYLINDRICAL_SURFACE('',#605,1.7);
#26=CYLINDRICAL_SURFACE('',#608,1.7);
#27=FACE_BOUND('',#97,.T.);
#28=FACE_BOUND('',#98,.T.);
#29=FACE_BOUND('',#99,.T.);
#30=FACE_BOUND('',#100,.T.);
#31=FACE_BOUND('',#105,.T.);
#32=FACE_BOUND('',#106,.T.);
#33=FACE_BOUND('',#107,.T.);
#34=FACE_BOUND('',#108,.T.);
#35=FACE_BOUND('',#125,.T.);
#36=FACE_BOUND('',#128,.T.);
#37=FACE_BOUND('',#131,.T.);
#38=FACE_BOUND('',#134,.T.);
#39=CIRCLE('',#561,5.);
#40=CIRCLE('',#562,5.);
#41=CIRCLE('',#563,5.);
#42=CIRCLE('',#564,5.);
#43=CIRCLE('',#565,1.7);
#44=CIRCLE('',#566,1.7);
#45=CIRCLE('',#567,1.7);
#46=CIRCLE('',#568,1.7);
#47=CIRCLE('',#571,5.);
#48=CIRCLE('',#574,5.);
#49=CIRCLE('',#575,5.);
#50=CIRCLE('',#576,5.);
#51=CIRCLE('',#577,3.);
#52=CIRCLE('',#578,3.);
#53=CIRCLE('',#579,3.00000000000001);
#54=CIRCLE('',#580,3.00000000000001);
#55=CIRCLE('',#589,3.);
#56=CIRCLE('',#591,3.);
#57=CIRCLE('',#593,3.00000000000001);
#58=CIRCLE('',#595,3.00000000000001);
#59=CIRCLE('',#600,1.7);
#60=CIRCLE('',#603,1.7);
#61=CIRCLE('',#606,1.7);
#62=CIRCLE('',#609,1.7);
#63=FACE_OUTER_BOUND('',#93,.T.);
#64=FACE_OUTER_BOUND('',#94,.T.);
#65=FACE_OUTER_BOUND('',#95,.T.);
#66=FACE_OUTER_BOUND('',#96,.T.);
#67=FACE_OUTER_BOUND('',#101,.T.);
#68=FACE_OUTER_BOUND('',#102,.T.);
#69=FACE_OUTER_BOUND('',#103,.T.);
#70=FACE_OUTER_BOUND('',#104,.T.);
#71=FACE_OUTER_BOUND('',#109,.T.);
#72=FACE_OUTER_BOUND('',#110,.T.);
#73=FACE_OUTER_BOUND('',#111,.T.);
#74=FACE_OUTER_BOUND('',#112,.T.);
#75=FACE_OUTER_BOUND('',#113,.T.);
#76=FACE_OUTER_BOUND('',#114,.T.);
#77=FACE_OUTER_BOUND('',#115,.T.);
#78=FACE_OUTER_BOUND('',#116,.T.);
#79=FACE_OUTER_BOUND('',#117,.T.);
#80=FACE_OUTER_BOUND('',#118,.T.);
#81=FACE_OUTER_BOUND('',#119,.T.);
#82=FACE_OUTER_BOUND('',#120,.T.);
#83=FACE_OUTER_BOUND('',#121,.T.);
#84=FACE_OUTER_BOUND('',#122,.T.);
#85=FACE_OUTER_BOUND('',#123,.T.);
#86=FACE_OUTER_BOUND('',#124,.T.);
#87=FACE_OUTER_BOUND('',#126,.T.);
#88=FACE_OUTER_BOUND('',#127,.T.);
#89=FACE_OUTER_BOUND('',#129,.T.);
#90=FACE_OUTER_BOUND('',#130,.T.);
#91=FACE_OUTER_BOUND('',#132,.T.);
#92=FACE_OUTER_BOUND('',#133,.T.);
#93=EDGE_LOOP('',(#351,#352,#353,#354));
#94=EDGE_LOOP('',(#355,#356,#357,#358));
#95=EDGE_LOOP('',(#359,#360,#361,#362));
#96=EDGE_LOOP('',(#363,#364,#365,#366,#367,#368,#369,#370,#371,#372,#373,
#374,#375,#376,#377,#378));
#97=EDGE_LOOP('',(#379));
#98=EDGE_LOOP('',(#380));
#99=EDGE_LOOP('',(#381));
#100=EDGE_LOOP('',(#382));
#101=EDGE_LOOP('',(#383,#384,#385,#386,#387,#388,#389,#390));
#102=EDGE_LOOP('',(#391,#392,#393,#394));
#103=EDGE_LOOP('',(#395,#396,#397,#398));
#104=EDGE_LOOP('',(#399,#400,#401,#402,#403,#404,#405,#406));
#105=EDGE_LOOP('',(#407));
#106=EDGE_LOOP('',(#408));
#107=EDGE_LOOP('',(#409));
#108=EDGE_LOOP('',(#410));
#109=EDGE_LOOP('',(#411,#412,#413,#414));
#110=EDGE_LOOP('',(#415,#416,#417,#418));
#111=EDGE_LOOP('',(#419,#420,#421,#422));
#112=EDGE_LOOP('',(#423,#424,#425,#426));
#113=EDGE_LOOP('',(#427,#428,#429,#430));
#114=EDGE_LOOP('',(#431,#432,#433,#434));
#115=EDGE_LOOP('',(#435,#436,#437,#438));
#116=EDGE_LOOP('',(#439,#440,#441,#442));
#117=EDGE_LOOP('',(#443,#444,#445,#446));
#118=EDGE_LOOP('',(#447,#448,#449,#450));
#119=EDGE_LOOP('',(#451,#452,#453,#454));
#120=EDGE_LOOP('',(#455,#456,#457,#458,#459,#460,#461,#462));
#121=EDGE_LOOP('',(#463,#464,#465,#466));
#122=EDGE_LOOP('',(#467,#468,#469,#470));
#123=EDGE_LOOP('',(#471,#472,#473,#474));
#124=EDGE_LOOP('',(#475));
#125=EDGE_LOOP('',(#476));
#126=EDGE_LOOP('',(#477,#478,#479,#480));
#127=EDGE_LOOP('',(#481));
#128=EDGE_LOOP('',(#482));
#129=EDGE_LOOP('',(#483,#484,#485,#486));
#130=EDGE_LOOP('',(#487));
#131=EDGE_LOOP('',(#488));
#132=EDGE_LOOP('',(#489,#490,#491,#492));
#133=EDGE_LOOP('',(#493));
#134=EDGE_LOOP('',(#494));
#135=LINE('',#773,#183);
#136=LINE('',#775,#184);
#137=LINE('',#777,#185);
#138=LINE('',#778,#186);
#139=LINE('',#782,#187);
#140=LINE('',#784,#188);
#141=LINE('',#786,#189);
#142=LINE('',#787,#190);
#143=LINE('',#789,#191);
#144=LINE('',#790,#192);
#145=LINE('',#793,#193);
#146=LINE('',#797,#194);
#147=LINE('',#801,#195);
#148=LINE('',#805,#196);
#149=LINE('',#808,#197);
#150=LINE('',#810,#198);
#151=LINE('',#812,#199);
#152=LINE('',#814,#200);
#153=LINE('',#816,#201);
#154=LINE('',#817,#202);
#155=LINE('',#828,#203);
#156=LINE('',#830,#204);
#157=LINE('',#831,#205);
#158=LINE('',#835,#206);
#159=LINE('',#838,#207);
#160=LINE('',#839,#208);
#161=LINE('',#844,#209);
#162=LINE('',#848,#210);
#163=LINE('',#859,#211);
#164=LINE('',#861,#212);
#165=LINE('',#863,#213);
#166=LINE('',#865,#214);
#167=LINE('',#869,#215);
#168=LINE('',#871,#216);
#169=LINE('',#873,#217);
#170=LINE('',#874,#218);
#171=LINE('',#876,#219);
#172=LINE('',#877,#220);
#173=LINE('',#879,#221);
#174=LINE('',#883,#222);
#175=LINE('',#887,#223);
#176=LINE('',#891,#224);
#177=LINE('',#895,#225);
#178=LINE('',#897,#226);
#179=LINE('',#902,#227);
#180=LINE('',#907,#228);
#181=LINE('',#912,#229);
#182=LINE('',#917,#230);
#183=VECTOR('',#615,10.);
#184=VECTOR('',#616,10.);
#185=VECTOR('',#617,10.);
#186=VECTOR('',#618,10.);
#187=VECTOR('',#621,10.);
#188=VECTOR('',#622,10.);
#189=VECTOR('',#623,10.);
#190=VECTOR('',#624,10.);
#191=VECTOR('',#627,10.);
#192=VECTOR('',#628,10.);
#193=VECTOR('',#631,10.);
#194=VECTOR('',#634,10.);
#195=VECTOR('',#637,10.);
#196=VECTOR('',#640,10.);
#197=VECTOR('',#643,10.);
#198=VECTOR('',#644,10.);
#199=VECTOR('',#645,10.);
#200=VECTOR('',#646,10.);
#201=VECTOR('',#647,10.);
#202=VECTOR('',#648,10.);
#203=VECTOR('',#659,10.);
#204=VECTOR('',#660,10.);
#205=VECTOR('',#661,10.);
#206=VECTOR('',#666,10.);
#207=VECTOR('',#669,10.);
#208=VECTOR('',#670,10.);
#209=VECTOR('',#675,10.);
#210=VECTOR('',#678,10.);
#211=VECTOR('',#691,10.);
#212=VECTOR('',#694,10.);
#213=VECTOR('',#697,10.);
#214=VECTOR('',#700,10.);
#215=VECTOR('',#703,10.);
#216=VECTOR('',#704,10.);
#217=VECTOR('',#705,10.);
#218=VECTOR('',#706,10.);
#219=VECTOR('',#709,10.);
#220=VECTOR('',#710,10.);
#221=VECTOR('',#713,10.);
#222=VECTOR('',#718,3.);
#223=VECTOR('',#723,3.);
#224=VECTOR('',#728,3.00000000000001);
#225=VECTOR('',#733,3.00000000000001);
#226=VECTOR('',#736,10.);
#227=VECTOR('',#743,1.7);
#228=VECTOR('',#750,1.7);
#229=VECTOR('',#757,1.7);
#230=VECTOR('',#764,1.7);
#231=VERTEX_POINT('',#771);
#232=VERTEX_POINT('',#772);
#233=VERTEX_POINT('',#774);
#234=VERTEX_POINT('',#776);
#235=VERTEX_POINT('',#780);
#236=VERTEX_POINT('',#781);
#237=VERTEX_POINT('',#783);
#238=VERTEX_POINT('',#785);
#239=VERTEX_POINT('',#792);
#240=VERTEX_POINT('',#794);
#241=VERTEX_POINT('',#796);
#242=VERTEX_POINT('',#798);
#243=VERTEX_POINT('',#800);
#244=VERTEX_POINT('',#802);
#245=VERTEX_POINT('',#804);
#246=VERTEX_POINT('',#806);
#247=VERTEX_POINT('',#809);
#248=VERTEX_POINT('',#811);
#249=VERTEX_POINT('',#813);
#250=VERTEX_POINT('',#815);
#251=VERTEX_POINT('',#818);
#252=VERTEX_POINT('',#820);
#253=VERTEX_POINT('',#822);
#254=VERTEX_POINT('',#824);
#255=VERTEX_POINT('',#827);
#256=VERTEX_POINT('',#829);
#257=VERTEX_POINT('',#833);
#258=VERTEX_POINT('',#837);
#259=VERTEX_POINT('',#841);
#260=VERTEX_POINT('',#843);
#261=VERTEX_POINT('',#845);
#262=VERTEX_POINT('',#847);
#263=VERTEX_POINT('',#850);
#264=VERTEX_POINT('',#852);
#265=VERTEX_POINT('',#854);
#266=VERTEX_POINT('',#856);
#267=VERTEX_POINT('',#867);
#268=VERTEX_POINT('',#868);
#269=VERTEX_POINT('',#870);
#270=VERTEX_POINT('',#872);
#271=VERTEX_POINT('',#881);
#272=VERTEX_POINT('',#885);
#273=VERTEX_POINT('',#889);
#274=VERTEX_POINT('',#893);
#275=VERTEX_POINT('',#901);
#276=VERTEX_POINT('',#906);
#277=VERTEX_POINT('',#911);
#278=VERTEX_POINT('',#916);
#279=EDGE_CURVE('',#231,#232,#135,.T.);
#280=EDGE_CURVE('',#233,#231,#136,.T.);
#281=EDGE_CURVE('',#233,#234,#137,.T.);
#282=EDGE_CURVE('',#232,#234,#138,.T.);
#283=EDGE_CURVE('',#235,#236,#139,.T.);
#284=EDGE_CURVE('',#237,#235,#140,.T.);
#285=EDGE_CURVE('',#237,#238,#141,.T.);
#286=EDGE_CURVE('',#236,#238,#142,.T.);
#287=EDGE_CURVE('',#234,#237,#143,.T.);
#288=EDGE_CURVE('',#238,#233,#144,.T.);
#289=EDGE_CURVE('',#236,#239,#145,.T.);
#290=EDGE_CURVE('',#240,#239,#39,.T.);
#291=EDGE_CURVE('',#240,#241,#146,.T.);
#292=EDGE_CURVE('',#242,#241,#40,.T.);
#293=EDGE_CURVE('',#242,#243,#147,.T.);
#294=EDGE_CURVE('',#244,#243,#41,.T.);
#295=EDGE_CURVE('',#244,#245,#148,.T.);
#296=EDGE_CURVE('',#246,#245,#42,.T.);
#297=EDGE_CURVE('',#246,#231,#149,.T.);
#298=EDGE_CURVE('',#232,#247,#150,.T.);
#299=EDGE_CURVE('',#247,#248,#151,.T.);
#300=EDGE_CURVE('',#248,#249,#152,.T.);
#301=EDGE_CURVE('',#249,#250,#153,.T.);
#302=EDGE_CURVE('',#250,#235,#154,.T.);
#303=EDGE_CURVE('',#251,#251,#43,.T.);
#304=EDGE_CURVE('',#252,#252,#44,.T.);
#305=EDGE_CURVE('',#253,#253,#45,.T.);
#306=EDGE_CURVE('',#254,#254,#46,.T.);
#307=EDGE_CURVE('',#255,#246,#155,.T.);
#308=EDGE_CURVE('',#256,#255,#156,.T.);
#309=EDGE_CURVE('',#239,#256,#157,.T.);
#310=EDGE_CURVE('',#256,#257,#47,.T.);
#311=EDGE_CURVE('',#257,#240,#158,.T.);
#312=EDGE_CURVE('',#258,#257,#159,.T.);
#313=EDGE_CURVE('',#241,#258,#160,.T.);
#314=EDGE_CURVE('',#259,#255,#48,.T.);
#315=EDGE_CURVE('',#259,#260,#161,.T.);
#316=EDGE_CURVE('',#261,#260,#49,.T.);
#317=EDGE_CURVE('',#261,#262,#162,.T.);
#318=EDGE_CURVE('',#258,#262,#50,.T.);
#319=EDGE_CURVE('',#263,#263,#51,.T.);
#320=EDGE_CURVE('',#264,#264,#52,.T.);
#321=EDGE_CURVE('',#265,#265,#53,.T.);
#322=EDGE_CURVE('',#266,#266,#54,.T.);
#323=EDGE_CURVE('',#245,#259,#163,.T.);
#324=EDGE_CURVE('',#260,#244,#164,.T.);
#325=EDGE_CURVE('',#243,#261,#165,.T.);
#326=EDGE_CURVE('',#262,#242,#166,.T.);
#327=EDGE_CURVE('',#267,#268,#167,.T.);
#328=EDGE_CURVE('',#269,#267,#168,.T.);
#329=EDGE_CURVE('',#270,#269,#169,.T.);
#330=EDGE_CURVE('',#268,#270,#170,.T.);
#331=EDGE_CURVE('',#269,#248,#171,.T.);
#332=EDGE_CURVE('',#270,#247,#172,.T.);
#333=EDGE_CURVE('',#267,#249,#173,.T.);
#334=EDGE_CURVE('',#271,#271,#55,.T.);
#335=EDGE_CURVE('',#271,#264,#174,.T.);
#336=EDGE_CURVE('',#272,#272,#56,.T.);
#337=EDGE_CURVE('',#272,#263,#175,.T.);
#338=EDGE_CURVE('',#273,#273,#57,.T.);
#339=EDGE_CURVE('',#273,#265,#176,.T.);
#340=EDGE_CURVE('',#274,#274,#58,.T.);
#341=EDGE_CURVE('',#274,#266,#177,.T.);
#342=EDGE_CURVE('',#268,#250,#178,.T.);
#343=EDGE_CURVE('',#253,#275,#179,.T.);
#344=EDGE_CURVE('',#275,#275,#59,.T.);
#345=EDGE_CURVE('',#252,#276,#180,.T.);
#346=EDGE_CURVE('',#276,#276,#60,.T.);
#347=EDGE_CURVE('',#254,#277,#181,.T.);
#348=EDGE_CURVE('',#277,#277,#61,.T.);
#349=EDGE_CURVE('',#251,#278,#182,.T.);
#350=EDGE_CURVE('',#278,#278,#62,.T.);
#351=ORIENTED_EDGE('',*,*,#279,.F.);
#352=ORIENTED_EDGE('',*,*,#280,.F.);
#353=ORIENTED_EDGE('',*,*,#281,.T.);
#354=ORIENTED_EDGE('',*,*,#282,.F.);
#355=ORIENTED_EDGE('',*,*,#283,.F.);
#356=ORIENTED_EDGE('',*,*,#284,.F.);
#357=ORIENTED_EDGE('',*,*,#285,.T.);
#358=ORIENTED_EDGE('',*,*,#286,.F.);
#359=ORIENTED_EDGE('',*,*,#285,.F.);
#360=ORIENTED_EDGE('',*,*,#287,.F.);
#361=ORIENTED_EDGE('',*,*,#281,.F.);
#362=ORIENTED_EDGE('',*,*,#288,.F.);
#363=ORIENTED_EDGE('',*,*,#283,.T.);
#364=ORIENTED_EDGE('',*,*,#289,.T.);
#365=ORIENTED_EDGE('',*,*,#290,.F.);
#366=ORIENTED_EDGE('',*,*,#291,.T.);
#367=ORIENTED_EDGE('',*,*,#292,.F.);
#368=ORIENTED_EDGE('',*,*,#293,.T.);
#369=ORIENTED_EDGE('',*,*,#294,.F.);
#370=ORIENTED_EDGE('',*,*,#295,.T.);
#371=ORIENTED_EDGE('',*,*,#296,.F.);
#372=ORIENTED_EDGE('',*,*,#297,.T.);
#373=ORIENTED_EDGE('',*,*,#279,.T.);
#374=ORIENTED_EDGE('',*,*,#298,.T.);
#375=ORIENTED_EDGE('',*,*,#299,.T.);
#376=ORIENTED_EDGE('',*,*,#300,.T.);
#377=ORIENTED_EDGE('',*,*,#301,.T.);
#378=ORIENTED_EDGE('',*,*,#302,.T.);
#379=ORIENTED_EDGE('',*,*,#303,.T.);
#380=ORIENTED_EDGE('',*,*,#304,.T.);
#381=ORIENTED_EDGE('',*,*,#305,.T.);
#382=ORIENTED_EDGE('',*,*,#306,.T.);
#383=ORIENTED_EDGE('',*,*,#286,.T.);
#384=ORIENTED_EDGE('',*,*,#288,.T.);
#385=ORIENTED_EDGE('',*,*,#280,.T.);
#386=ORIENTED_EDGE('',*,*,#297,.F.);
#387=ORIENTED_EDGE('',*,*,#307,.F.);
#388=ORIENTED_EDGE('',*,*,#308,.F.);
#389=ORIENTED_EDGE('',*,*,#309,.F.);
#390=ORIENTED_EDGE('',*,*,#289,.F.);
#391=ORIENTED_EDGE('',*,*,#290,.T.);
#392=ORIENTED_EDGE('',*,*,#309,.T.);
#393=ORIENTED_EDGE('',*,*,#310,.T.);
#394=ORIENTED_EDGE('',*,*,#311,.T.);
#395=ORIENTED_EDGE('',*,*,#311,.F.);
#396=ORIENTED_EDGE('',*,*,#312,.F.);
#397=ORIENTED_EDGE('',*,*,#313,.F.);
#398=ORIENTED_EDGE('',*,*,#291,.F.);
#399=ORIENTED_EDGE('',*,*,#310,.F.);
#400=ORIENTED_EDGE('',*,*,#308,.T.);
#401=ORIENTED_EDGE('',*,*,#314,.F.);
#402=ORIENTED_EDGE('',*,*,#315,.T.);
#403=ORIENTED_EDGE('',*,*,#316,.F.);
#404=ORIENTED_EDGE('',*,*,#317,.T.);
#405=ORIENTED_EDGE('',*,*,#318,.F.);
#406=ORIENTED_EDGE('',*,*,#312,.T.);
#407=ORIENTED_EDGE('',*,*,#319,.F.);
#408=ORIENTED_EDGE('',*,*,#320,.F.);
#409=ORIENTED_EDGE('',*,*,#321,.F.);
#410=ORIENTED_EDGE('',*,*,#322,.F.);
#411=ORIENTED_EDGE('',*,*,#296,.T.);
#412=ORIENTED_EDGE('',*,*,#323,.T.);
#413=ORIENTED_EDGE('',*,*,#314,.T.);
#414=ORIENTED_EDGE('',*,*,#307,.T.);
#415=ORIENTED_EDGE('',*,*,#323,.F.);
#416=ORIENTED_EDGE('',*,*,#295,.F.);
#417=ORIENTED_EDGE('',*,*,#324,.F.);
#418=ORIENTED_EDGE('',*,*,#315,.F.);
#419=ORIENTED_EDGE('',*,*,#294,.T.);
#420=ORIENTED_EDGE('',*,*,#325,.T.);
#421=ORIENTED_EDGE('',*,*,#316,.T.);
#422=ORIENTED_EDGE('',*,*,#324,.T.);
#423=ORIENTED_EDGE('',*,*,#292,.T.);
#424=ORIENTED_EDGE('',*,*,#313,.T.);
#425=ORIENTED_EDGE('',*,*,#318,.T.);
#426=ORIENTED_EDGE('',*,*,#326,.T.);
#427=ORIENTED_EDGE('',*,*,#327,.F.);
#428=ORIENTED_EDGE('',*,*,#328,.F.);
#429=ORIENTED_EDGE('',*,*,#329,.F.);
#430=ORIENTED_EDGE('',*,*,#330,.F.);
#431=ORIENTED_EDGE('',*,*,#329,.T.);
#432=ORIENTED_EDGE('',*,*,#331,.T.);
#433=ORIENTED_EDGE('',*,*,#299,.F.);
#434=ORIENTED_EDGE('',*,*,#332,.F.);
#435=ORIENTED_EDGE('',*,*,#328,.T.);
#436=ORIENTED_EDGE('',*,*,#333,.T.);
#437=ORIENTED_EDGE('',*,*,#300,.F.);
#438=ORIENTED_EDGE('',*,*,#331,.F.);
#439=ORIENTED_EDGE('',*,*,#334,.T.);
#440=ORIENTED_EDGE('',*,*,#335,.T.);
#441=ORIENTED_EDGE('',*,*,#320,.T.);
#442=ORIENTED_EDGE('',*,*,#335,.F.);
#443=ORIENTED_EDGE('',*,*,#336,.T.);
#444=ORIENTED_EDGE('',*,*,#337,.T.);
#445=ORIENTED_EDGE('',*,*,#319,.T.);
#446=ORIENTED_EDGE('',*,*,#337,.F.);
#447=ORIENTED_EDGE('',*,*,#338,.T.);
#448=ORIENTED_EDGE('',*,*,#339,.T.);
#449=ORIENTED_EDGE('',*,*,#321,.T.);
#450=ORIENTED_EDGE('',*,*,#339,.F.);
#451=ORIENTED_EDGE('',*,*,#340,.T.);
#452=ORIENTED_EDGE('',*,*,#341,.T.);
#453=ORIENTED_EDGE('',*,*,#322,.T.);
#454=ORIENTED_EDGE('',*,*,#341,.F.);
#455=ORIENTED_EDGE('',*,*,#284,.T.);
#456=ORIENTED_EDGE('',*,*,#302,.F.);
#457=ORIENTED_EDGE('',*,*,#342,.F.);
#458=ORIENTED_EDGE('',*,*,#330,.T.);
#459=ORIENTED_EDGE('',*,*,#332,.T.);
#460=ORIENTED_EDGE('',*,*,#298,.F.);
#461=ORIENTED_EDGE('',*,*,#282,.T.);
#462=ORIENTED_EDGE('',*,*,#287,.T.);
#463=ORIENTED_EDGE('',*,*,#327,.T.);
#464=ORIENTED_EDGE('',*,*,#342,.T.);
#465=ORIENTED_EDGE('',*,*,#301,.F.);
#466=ORIENTED_EDGE('',*,*,#333,.F.);
#467=ORIENTED_EDGE('',*,*,#325,.F.);
#468=ORIENTED_EDGE('',*,*,#293,.F.);
#469=ORIENTED_EDGE('',*,*,#326,.F.);
#470=ORIENTED_EDGE('',*,*,#317,.F.);
#471=ORIENTED_EDGE('',*,*,#305,.F.);
#472=ORIENTED_EDGE('',*,*,#343,.T.);
#473=ORIENTED_EDGE('',*,*,#344,.T.);
#474=ORIENTED_EDGE('',*,*,#343,.F.);
#475=ORIENTED_EDGE('',*,*,#340,.F.);
#476=ORIENTED_EDGE('',*,*,#344,.F.);
#477=ORIENTED_EDGE('',*,*,#304,.F.);
#478=ORIENTED_EDGE('',*,*,#345,.T.);
#479=ORIENTED_EDGE('',*,*,#346,.T.);
#480=ORIENTED_EDGE('',*,*,#345,.F.);
#481=ORIENTED_EDGE('',*,*,#338,.F.);
#482=ORIENTED_EDGE('',*,*,#346,.F.);
#483=ORIENTED_EDGE('',*,*,#306,.F.);
#484=ORIENTED_EDGE('',*,*,#347,.T.);
#485=ORIENTED_EDGE('',*,*,#348,.T.);
#486=ORIENTED_EDGE('',*,*,#347,.F.);
#487=ORIENTED_EDGE('',*,*,#336,.F.);
#488=ORIENTED_EDGE('',*,*,#348,.F.);
#489=ORIENTED_EDGE('',*,*,#303,.F.);
#490=ORIENTED_EDGE('',*,*,#349,.T.);
#491=ORIENTED_EDGE('',*,*,#350,.T.);
#492=ORIENTED_EDGE('',*,*,#349,.F.);
#493=ORIENTED_EDGE('',*,*,#334,.F.);
#494=ORIENTED_EDGE('',*,*,#350,.F.);
#495=PLANE('',#557);
#496=PLANE('',#558);
#497=PLANE('',#559);
#498=PLANE('',#560);
#499=PLANE('',#569);
#500=PLANE('',#572);
#501=PLANE('',#573);
#502=PLANE('',#582);
#503=PLANE('',#585);
#504=PLANE('',#586);
#505=PLANE('',#587);
#506=PLANE('',#596);
#507=PLANE('',#597);
#508=PLANE('',#598);
#509=PLANE('',#601);
#510=PLANE('',#604);
#511=PLANE('',#607);
#512=PLANE('',#610);
#513=ADVANCED_FACE('',(#63),#495,.F.);
#514=ADVANCED_FACE('',(#64),#496,.F.);
#515=ADVANCED_FACE('',(#65),#497,.F.);
#516=ADVANCED_FACE('',(#66,#27,#28,#29,#30),#498,.T.);
#517=ADVANCED_FACE('',(#67),#499,.T.);
#518=ADVANCED_FACE('',(#68),#15,.T.);
#519=ADVANCED_FACE('',(#69),#500,.T.);
#520=ADVANCED_FACE('',(#70,#31,#32,#33,#34),#501,.F.);
#521=ADVANCED_FACE('',(#71),#16,.T.);
#522=ADVANCED_FACE('',(#72),#502,.T.);
#523=ADVANCED_FACE('',(#73),#17,.T.);
#524=ADVANCED_FACE('',(#74),#18,.T.);
#525=ADVANCED_FACE('',(#75),#503,.T.);
#526=ADVANCED_FACE('',(#76),#504,.T.);
#527=ADVANCED_FACE('',(#77),#505,.T.);
#528=ADVANCED_FACE('',(#78),#19,.F.);
#529=ADVANCED_FACE('',(#79),#20,.F.);
#530=ADVANCED_FACE('',(#80),#21,.F.);
#531=ADVANCED_FACE('',(#81),#22,.F.);
#532=ADVANCED_FACE('',(#82),#506,.T.);
#533=ADVANCED_FACE('',(#83),#507,.T.);
#534=ADVANCED_FACE('',(#84),#508,.T.);
#535=ADVANCED_FACE('',(#85),#23,.F.);
#536=ADVANCED_FACE('',(#86,#35),#509,.F.);
#537=ADVANCED_FACE('',(#87),#24,.F.);
#538=ADVANCED_FACE('',(#88,#36),#510,.F.);
#539=ADVANCED_FACE('',(#89),#25,.F.);
#540=ADVANCED_FACE('',(#90,#37),#511,.F.);
#541=ADVANCED_FACE('',(#91),#26,.F.);
#542=ADVANCED_FACE('',(#92,#38),#512,.F.);
#543=CLOSED_SHELL('',(#513,#514,#515,#516,#517,#518,#519,#520,#521,#522,
#523,#524,#525,#526,#527,#528,#529,#530,#531,#532,#533,#534,#535,#536,#537,
#538,#539,#540,#541,#542));
#544=DERIVED_UNIT_ELEMENT(#546,1.);
#545=DERIVED_UNIT_ELEMENT(#925,-3.);
#546=(
MASS_UNIT()
NAMED_UNIT(*)
SI_UNIT(.KILO.,.GRAM.)
);
#547=DERIVED_UNIT((#544,#545));
#548=MEASURE_REPRESENTATION_ITEM('density measure',
POSITIVE_RATIO_MEASURE(7850.),#547);
#549=PROPERTY_DEFINITION_REPRESENTATION(#554,#551);
#550=PROPERTY_DEFINITION_REPRESENTATION(#555,#552);
#551=REPRESENTATION('material name',(#553),#922);
#552=REPRESENTATION('density',(#548),#922);
#553=DESCRIPTIVE_REPRESENTATION_ITEM('Steel','Steel');
#554=PROPERTY_DEFINITION('material property','material name',#932);
#555=PROPERTY_DEFINITION('material property','density of part',#932);
#556=AXIS2_PLACEMENT_3D('',#769,#611,#612);
#557=AXIS2_PLACEMENT_3D('',#770,#613,#614);
#558=AXIS2_PLACEMENT_3D('',#779,#619,#620);
#559=AXIS2_PLACEMENT_3D('',#788,#625,#626);
#560=AXIS2_PLACEMENT_3D('',#791,#629,#630);
#561=AXIS2_PLACEMENT_3D('',#795,#632,#633);
#562=AXIS2_PLACEMENT_3D('',#799,#635,#636);
#563=AXIS2_PLACEMENT_3D('',#803,#638,#639);
#564=AXIS2_PLACEMENT_3D('',#807,#641,#642);
#565=AXIS2_PLACEMENT_3D('',#819,#649,#650);
#566=AXIS2_PLACEMENT_3D('',#821,#651,#652);
#567=AXIS2_PLACEMENT_3D('',#823,#653,#654);
#568=AXIS2_PLACEMENT_3D('',#825,#655,#656);
#569=AXIS2_PLACEMENT_3D('',#826,#657,#658);
#570=AXIS2_PLACEMENT_3D('',#832,#662,#663);
#571=AXIS2_PLACEMENT_3D('',#834,#664,#665);
#572=AXIS2_PLACEMENT_3D('',#836,#667,#668);
#573=AXIS2_PLACEMENT_3D('',#840,#671,#672);
#574=AXIS2_PLACEMENT_3D('',#842,#673,#674);
#575=AXIS2_PLACEMENT_3D('',#846,#676,#677);
#576=AXIS2_PLACEMENT_3D('',#849,#679,#680);
#577=AXIS2_PLACEMENT_3D('',#851,#681,#682);
#578=AXIS2_PLACEMENT_3D('',#853,#683,#684);
#579=AXIS2_PLACEMENT_3D('',#855,#685,#686);
#580=AXIS2_PLACEMENT_3D('',#857,#687,#688);
#581=AXIS2_PLACEMENT_3D('',#858,#689,#690);
#582=AXIS2_PLACEMENT_3D('',#860,#692,#693);
#583=AXIS2_PLACEMENT_3D('',#862,#695,#696);
#584=AXIS2_PLACEMENT_3D('',#864,#698,#699);
#585=AXIS2_PLACEMENT_3D('',#866,#701,#702);
#586=AXIS2_PLACEMENT_3D('',#875,#707,#708);
#587=AXIS2_PLACEMENT_3D('',#878,#711,#712);
#588=AXIS2_PLACEMENT_3D('',#880,#714,#715);
#589=AXIS2_PLACEMENT_3D('',#882,#716,#717);
#590=AXIS2_PLACEMENT_3D('',#884,#719,#720);
#591=AXIS2_PLACEMENT_3D('',#886,#721,#722);
#592=AXIS2_PLACEMENT_3D('',#888,#724,#725);
#593=AXIS2_PLACEMENT_3D('',#890,#726,#727);
#594=AXIS2_PLACEMENT_3D('',#892,#729,#730);
#595=AXIS2_PLACEMENT_3D('',#894,#731,#732);
#596=AXIS2_PLACEMENT_3D('',#896,#734,#735);
#597=AXIS2_PLACEMENT_3D('',#898,#737,#738);
#598=AXIS2_PLACEMENT_3D('',#899,#739,#740);
#599=AXIS2_PLACEMENT_3D('',#900,#741,#742);
#600=AXIS2_PLACEMENT_3D('',#903,#744,#745);
#601=AXIS2_PLACEMENT_3D('',#904,#746,#747);
#602=AXIS2_PLACEMENT_3D('',#905,#748,#749);
#603=AXIS2_PLACEMENT_3D('',#908,#751,#752);
#604=AXIS2_PLACEMENT_3D('',#909,#753,#754);
#605=AXIS2_PLACEMENT_3D('',#910,#755,#756);
#606=AXIS2_PLACEMENT_3D('',#913,#758,#759);
#607=AXIS2_PLACEMENT_3D('',#914,#760,#761);
#608=AXIS2_PLACEMENT_3D('',#915,#762,#763);
#609=AXIS2_PLACEMENT_3D('',#918,#765,#766);
#610=AXIS2_PLACEMENT_3D('',#919,#767,#768);
#611=DIRECTION('axis',(0.,0.,1.));
#612=DIRECTION('refdir',(1.,0.,0.));
#613=DIRECTION('center_axis',(0.,1.,0.));
#614=DIRECTION('ref_axis',(1.,0.,0.));
#615=DIRECTION('',(1.,0.,0.));
#616=DIRECTION('',(0.,0.,1.));
#617=DIRECTION('',(1.,0.,0.));
#618=DIRECTION('',(0.,0.,-1.));
#619=DIRECTION('center_axis',(0.,-1.,0.));
#620=DIRECTION('ref_axis',(-1.,0.,0.));
#621=DIRECTION('',(-1.,0.,0.));
#622=DIRECTION('',(0.,0.,1.));
#623=DIRECTION('',(-1.,0.,0.));
#624=DIRECTION('',(0.,0.,-1.));
#625=DIRECTION('center_axis',(0.,0.,-1.));
#626=DIRECTION('ref_axis',(-1.,0.,0.));
#627=DIRECTION('',(0.,-1.,0.));
#628=DIRECTION('',(0.,1.,0.));
#629=DIRECTION('center_axis',(0.,0.,1.));
#630=DIRECTION('ref_axis',(1.,0.,0.));
#631=DIRECTION('',(0.,-1.,0.));
#632=DIRECTION('center_axis',(0.,0.,-1.));
#633=DIRECTION('ref_axis',(-0.707106781186547,-0.707106781186547,0.));
#634=DIRECTION('',(1.,0.,0.));
#635=DIRECTION('center_axis',(0.,0.,-1.));
#636=DIRECTION('ref_axis',(0.707106781186547,-0.707106781186547,0.));
#637=DIRECTION('',(0.,1.,0.));
#638=DIRECTION('center_axis',(0.,0.,-1.));
#639=DIRECTION('ref_axis',(0.707106781186547,0.707106781186547,0.));
#640=DIRECTION('',(-1.,0.,0.));
#641=DIRECTION('center_axis',(0.,0.,-1.));
#642=DIRECTION('ref_axis',(-0.707106781186547,0.707106781186547,0.));
#643=DIRECTION('',(0.,-1.,0.));
#644=DIRECTION('',(0.,1.,0.));
#645=DIRECTION('',(1.,0.,0.));
#646=DIRECTION('',(0.,-1.,0.));
#647=DIRECTION('',(-1.,0.,0.));
#648=DIRECTION('',(0.,1.,0.));
#649=DIRECTION('center_axis',(0.,0.,-1.));
#650=DIRECTION('ref_axis',(1.,0.,0.));
#651=DIRECTION('center_axis',(0.,0.,-1.));
#652=DIRECTION('ref_axis',(1.,0.,0.));
#653=DIRECTION('center_axis',(0.,0.,-1.));
#654=DIRECTION('ref_axis',(1.,0.,0.));
#655=DIRECTION('center_axis',(0.,0.,-1.));
#656=DIRECTION('ref_axis',(1.,0.,0.));
#657=DIRECTION('center_axis',(-1.,0.,0.));
#658=DIRECTION('ref_axis',(0.,-1.,0.));
#659=DIRECTION('',(0.,0.,1.));
#660=DIRECTION('',(0.,1.,0.));
#661=DIRECTION('',(0.,0.,-1.));
#662=DIRECTION('center_axis',(0.,0.,1.));
#663=DIRECTION('ref_axis',(-0.707106781186547,-0.707106781186547,0.));
#664=DIRECTION('center_axis',(0.,0.,1.));
#665=DIRECTION('ref_axis',(-0.707106781186547,-0.707106781186547,0.));
#666=DIRECTION('',(0.,0.,1.));
#667=DIRECTION('center_axis',(0.,-1.,0.));
#668=DIRECTION('ref_axis',(1.,0.,0.));
#669=DIRECTION('',(-1.,0.,0.));
#670=DIRECTION('',(0.,0.,-1.));
#671=DIRECTION('center_axis',(0.,0.,1.));
#672=DIRECTION('ref_axis',(1.,0.,0.));
#673=DIRECTION('center_axis',(0.,0.,1.));
#674=DIRECTION('ref_axis',(-0.707106781186547,0.707106781186547,0.));
#675=DIRECTION('',(1.,0.,0.));
#676=DIRECTION('center_axis',(0.,0.,1.));
#677=DIRECTION('ref_axis',(0.707106781186547,0.707106781186547,0.));
#678=DIRECTION('',(0.,-1.,0.));
#679=DIRECTION('center_axis',(0.,0.,1.));
#680=DIRECTION('ref_axis',(0.707106781186547,-0.707106781186547,0.));
#681=DIRECTION('center_axis',(0.,0.,-1.));
#682=DIRECTION('ref_axis',(1.,0.,0.));
#683=DIRECTION('center_axis',(0.,0.,-1.));
#684=DIRECTION('ref_axis',(1.,0.,0.));
#685=DIRECTION('center_axis',(0.,0.,-1.));
#686=DIRECTION('ref_axis',(1.,0.,0.));
#687=DIRECTION('center_axis',(0.,0.,-1.));
#688=DIRECTION('ref_axis',(1.,0.,0.));
#689=DIRECTION('center_axis',(0.,0.,1.));
#690=DIRECTION('ref_axis',(-0.707106781186547,0.707106781186547,0.));
#691=DIRECTION('',(0.,0.,-1.));
#692=DIRECTION('center_axis',(0.,1.,0.));
#693=DIRECTION('ref_axis',(-1.,0.,0.));
#694=DIRECTION('',(0.,0.,1.));
#695=DIRECTION('center_axis',(0.,0.,1.));
#696=DIRECTION('ref_axis',(0.707106781186547,0.707106781186547,0.));
#697=DIRECTION('',(0.,0.,-1.));
#698=DIRECTION('center_axis',(0.,0.,1.));
#699=DIRECTION('ref_axis',(0.707106781186547,-0.707106781186547,0.));
#700=DIRECTION('',(0.,0.,1.));
#701=DIRECTION('center_axis',(0.,0.,1.));
#702=DIRECTION('ref_axis',(1.,0.,0.));
#703=DIRECTION('',(-1.,0.,0.));
#704=DIRECTION('',(0.,-1.,0.));
#705=DIRECTION('',(1.,0.,0.));
#706=DIRECTION('',(0.,1.,0.));
#707=DIRECTION('center_axis',(0.,-1.,0.));
#708=DIRECTION('ref_axis',(1.,0.,0.));
#709=DIRECTION('',(0.,0.,1.));
#710=DIRECTION('',(0.,0.,1.));
#711=DIRECTION('center_axis',(-1.,0.,0.));
#712=DIRECTION('ref_axis',(0.,-1.,0.));
#713=DIRECTION('',(0.,0.,1.));
#714=DIRECTION('center_axis',(0.,0.,1.));
#715=DIRECTION('ref_axis',(1.,0.,0.));
#716=DIRECTION('center_axis',(0.,0.,1.));
#717=DIRECTION('ref_axis',(1.,0.,0.));
#718=DIRECTION('',(0.,0.,-1.));
#719=DIRECTION('center_axis',(0.,0.,1.));
#720=DIRECTION('ref_axis',(1.,0.,0.));
#721=DIRECTION('center_axis',(0.,0.,1.));
#722=DIRECTION('ref_axis',(1.,0.,0.));
#723=DIRECTION('',(0.,0.,-1.));
#724=DIRECTION('center_axis',(0.,0.,1.));
#725=DIRECTION('ref_axis',(1.,0.,0.));
#726=DIRECTION('center_axis',(0.,0.,1.));
#727=DIRECTION('ref_axis',(1.,0.,0.));
#728=DIRECTION('',(0.,0.,-1.));
#729=DIRECTION('center_axis',(0.,0.,1.));
#730=DIRECTION('ref_axis',(1.,0.,0.));
#731=DIRECTION('center_axis',(0.,0.,1.));
#732=DIRECTION('ref_axis',(1.,0.,0.));
#733=DIRECTION('',(0.,0.,-1.));
#734=DIRECTION('center_axis',(1.,0.,0.));
#735=DIRECTION('ref_axis',(0.,1.,0.));
#736=DIRECTION('',(0.,0.,1.));
#737=DIRECTION('center_axis',(0.,1.,0.));
#738=DIRECTION('ref_axis',(-1.,0.,0.));
#739=DIRECTION('center_axis',(1.,0.,0.));
#740=DIRECTION('ref_axis',(0.,1.,0.));
#741=DIRECTION('center_axis',(0.,0.,1.));
#742=DIRECTION('ref_axis',(1.,0.,0.));
#743=DIRECTION('',(0.,0.,-1.));
#744=DIRECTION('center_axis',(0.,0.,-1.));
#745=DIRECTION('ref_axis',(1.,0.,0.));
#746=DIRECTION('center_axis',(0.,0.,1.));
#747=DIRECTION('ref_axis',(1.,0.,0.));
#748=DIRECTION('center_axis',(0.,0.,1.));
#749=DIRECTION('ref_axis',(1.,0.,0.));
#750=DIRECTION('',(0.,0.,-1.));
#751=DIRECTION('center_axis',(0.,0.,-1.));
#752=DIRECTION('ref_axis',(1.,0.,0.));
#753=DIRECTION('center_axis',(0.,0.,1.));
#754=DIRECTION('ref_axis',(1.,0.,0.));
#755=DIRECTION('center_axis',(0.,0.,1.));
#756=DIRECTION('ref_axis',(1.,0.,0.));
#757=DIRECTION('',(0.,0.,-1.));
#758=DIRECTION('center_axis',(0.,0.,-1.));
#759=DIRECTION('ref_axis',(1.,0.,0.));
#760=DIRECTION('center_axis',(0.,0.,1.));
#761=DIRECTION('ref_axis',(1.,0.,0.));
#762=DIRECTION('center_axis',(0.,0.,1.));
#763=DIRECTION('ref_axis',(1.,0.,0.));
#764=DIRECTION('',(0.,0.,-1.));
#765=DIRECTION('center_axis',(0.,0.,-1.));
#766=DIRECTION('ref_axis',(1.,0.,0.));
#767=DIRECTION('center_axis',(0.,0.,1.));
#768=DIRECTION('ref_axis',(1.,0.,0.));
#769=CARTESIAN_POINT('',(0.,0.,0.));
#770=CARTESIAN_POINT('Origin',(-29.0000002980232,-6.8000000595884,13.));
#771=CARTESIAN_POINT('',(-29.0000002980232,-6.8000000595884,13.));
#772=CARTESIAN_POINT('',(-20.0000002980232,-6.8000000595884,13.));
#773=CARTESIAN_POINT('',(-26.5000002980232,-6.8000000595884,13.));
#774=CARTESIAN_POINT('',(-29.0000002980232,-6.8000000595884,5.5));
#775=CARTESIAN_POINT('',(-29.0000002980232,-6.80000005958839,6.5));
#776=CARTESIAN_POINT('',(-20.0000002980232,-6.8000000595884,5.5));
#777=CARTESIAN_POINT('',(-29.0000002980232,-6.8000000595884,5.5));
#778=CARTESIAN_POINT('',(-20.0000002980232,-6.80000005958839,6.5));
#779=CARTESIAN_POINT('Origin',(-20.0000002980232,-16.3000000595884,13.));
#780=CARTESIAN_POINT('',(-20.0000002980232,-16.3000000595884,13.));
#781=CARTESIAN_POINT('',(-29.0000002980232,-16.3000000595884,13.));
#782=CARTESIAN_POINT('',(-22.0000002980232,-16.3000000595884,13.));
#783=CARTESIAN_POINT('',(-20.0000002980232,-16.3000000595884,5.5));
#784=CARTESIAN_POINT('',(-20.0000002980232,-16.3000000595884,6.5));
#785=CARTESIAN_POINT('',(-29.0000002980232,-16.3000000595884,5.5));
#786=CARTESIAN_POINT('',(-20.0000002980232,-16.3000000595884,5.5));
#787=CARTESIAN_POINT('',(-29.0000002980232,-16.3000000595884,6.5));
#788=CARTESIAN_POINT('Origin',(-24.5000002980232,-11.5500000595884,5.5));
#789=CARTESIAN_POINT('',(-20.0000002980232,-21.7749999552884,5.5));
#790=CARTESIAN_POINT('',(-29.0000002980232,2.72500004471161,5.5));
#791=CARTESIAN_POINT('Origin',(-24.0000002980232,12.0000001490116,13.));
#792=CARTESIAN_POINT('',(-29.0000002980232,-35.9999998509884,13.));
#793=CARTESIAN_POINT('',(-29.0000002980232,-40.9999998509884,13.));
#794=CARTESIAN_POINT('',(-24.0000002980232,-40.9999998509884,13.));
#795=CARTESIAN_POINT('Origin',(-24.0000002980232,-35.9999998509884,13.));
#796=CARTESIAN_POINT('',(81.9999997019768,-40.9999998509884,13.));
#797=CARTESIAN_POINT('',(86.9999997019768,-40.9999998509884,13.));
#798=CARTESIAN_POINT('',(86.9999997019768,-35.9999998509884,13.));
#799=CARTESIAN_POINT('Origin',(81.9999997019768,-35.9999998509884,13.));
#800=CARTESIAN_POINT('',(86.9999997019768,12.0000001490116,13.));
#801=CARTESIAN_POINT('',(86.9999997019768,17.0000001490116,13.));
#802=CARTESIAN_POINT('',(81.9999997019768,17.0000001490116,13.));
#803=CARTESIAN_POINT('Origin',(81.9999997019768,12.0000001490116,13.));
#804=CARTESIAN_POINT('',(-24.0000002980232,17.0000001490116,13.));
#805=CARTESIAN_POINT('',(-29.0000002980232,17.0000001490116,13.));
#806=CARTESIAN_POINT('',(-29.0000002980232,12.0000001490116,13.));
#807=CARTESIAN_POINT('Origin',(-24.0000002980232,12.0000001490116,13.));
#808=CARTESIAN_POINT('',(-29.0000002980232,-40.9999998509884,13.));
#809=CARTESIAN_POINT('',(-20.0000002980232,8.0000001490116,13.));
#810=CARTESIAN_POINT('',(-20.0000002980232,-31.9999998509884,13.));
#811=CARTESIAN_POINT('',(77.9999997019768,8.0000001490116,13.));
#812=CARTESIAN_POINT('',(-20.0000002980232,8.00000014901161,13.));
#813=CARTESIAN_POINT('',(77.9999997019768,-31.9999998509884,13.));
#814=CARTESIAN_POINT('',(77.9999997019768,8.00000014901161,13.));
#815=CARTESIAN_POINT('',(-20.0000002980232,-31.9999998509884,13.));
#816=CARTESIAN_POINT('',(77.9999997019768,-31.9999998509884,13.));
#817=CARTESIAN_POINT('',(-20.0000002980232,-31.9999998509884,13.));
#818=CARTESIAN_POINT('',(-25.7000002980232,12.0000001490116,13.));
#819=CARTESIAN_POINT('Origin',(-24.0000002980232,12.0000001490116,13.));
#820=CARTESIAN_POINT('',(80.2999997019768,-35.9999998509884,13.));
#821=CARTESIAN_POINT('Origin',(81.9999997019768,-35.9999998509884,13.));
#822=CARTESIAN_POINT('',(80.2999997019768,12.0000001490116,13.));
#823=CARTESIAN_POINT('Origin',(81.9999997019768,12.0000001490116,13.));
#824=CARTESIAN_POINT('',(-25.7000002980232,-35.9999998509884,13.));
#825=CARTESIAN_POINT('Origin',(-24.0000002980232,-35.9999998509884,13.));
#826=CARTESIAN_POINT('Origin',(-29.0000002980232,17.0000001490116,0.));
#827=CARTESIAN_POINT('',(-29.0000002980232,12.0000001490116,0.));
#828=CARTESIAN_POINT('',(-29.0000002980232,12.0000001490116,0.));
#829=CARTESIAN_POINT('',(-29.0000002980232,-35.9999998509884,0.));
#830=CARTESIAN_POINT('',(-29.0000002980232,-40.9999998509884,0.));
#831=CARTESIAN_POINT('',(-29.0000002980232,-35.9999998509884,0.));
#832=CARTESIAN_POINT('Origin',(-24.0000002980232,-35.9999998509884,0.));
#833=CARTESIAN_POINT('',(-24.0000002980232,-40.9999998509884,0.));
#834=CARTESIAN_POINT('Origin',(-24.0000002980232,-35.9999998509884,0.));
#835=CARTESIAN_POINT('',(-24.0000002980232,-40.9999998509884,0.));
#836=CARTESIAN_POINT('Origin',(-29.0000002980232,-40.9999998509884,0.));
#837=CARTESIAN_POINT('',(81.9999997019768,-40.9999998509884,0.));
#838=CARTESIAN_POINT('',(86.9999997019768,-40.9999998509884,0.));
#839=CARTESIAN_POINT('',(81.9999997019768,-40.9999998509884,0.));
#840=CARTESIAN_POINT('Origin',(28.9999997019768,-11.9999998509884,0.));
#841=CARTESIAN_POINT('',(-24.0000002980232,17.0000001490116,0.));
#842=CARTESIAN_POINT('Origin',(-24.0000002980232,12.0000001490116,0.));
#843=CARTESIAN_POINT('',(81.9999997019768,17.0000001490116,0.));
#844=CARTESIAN_POINT('',(-29.0000002980232,17.0000001490116,0.));
#845=CARTESIAN_POINT('',(86.9999997019768,12.0000001490116,0.));
#846=CARTESIAN_POINT('Origin',(81.9999997019768,12.0000001490116,0.));
#847=CARTESIAN_POINT('',(86.9999997019768,-35.9999998509884,0.));
#848=CARTESIAN_POINT('',(86.9999997019768,17.0000001490116,0.));
#849=CARTESIAN_POINT('Origin',(81.9999997019768,-35.9999998509884,0.));
#850=CARTESIAN_POINT('',(-27.0000002980232,-35.9999998509884,0.));
#851=CARTESIAN_POINT('Origin',(-24.0000002980232,-35.9999998509884,0.));
#852=CARTESIAN_POINT('',(-27.0000002980232,12.0000001490116,0.));
#853=CARTESIAN_POINT('Origin',(-24.0000002980232,12.0000001490116,0.));
#854=CARTESIAN_POINT('',(78.9999997019768,-35.9999998509884,0.));
#855=CARTESIAN_POINT('Origin',(81.9999997019768,-35.9999998509884,0.));
#856=CARTESIAN_POINT('',(78.9999997019768,12.0000001490116,0.));
#857=CARTESIAN_POINT('Origin',(81.9999997019768,12.0000001490116,0.));
#858=CARTESIAN_POINT('Origin',(-24.0000002980232,12.0000001490116,0.));
#859=CARTESIAN_POINT('',(-24.0000002980232,17.0000001490116,0.));
#860=CARTESIAN_POINT('Origin',(86.9999997019768,17.0000001490116,0.));
#861=CARTESIAN_POINT('',(81.9999997019768,17.0000001490116,0.));
#862=CARTESIAN_POINT('Origin',(81.9999997019768,12.0000001490116,0.));
#863=CARTESIAN_POINT('',(86.9999997019768,12.0000001490116,0.));
#864=CARTESIAN_POINT('Origin',(81.9999997019768,-35.9999998509884,0.));
#865=CARTESIAN_POINT('',(86.9999997019768,-35.9999998509884,0.));
#866=CARTESIAN_POINT('Origin',(28.9999997019768,-11.9999998509884,3.));
#867=CARTESIAN_POINT('',(77.9999997019768,-31.9999998509884,3.));
#868=CARTESIAN_POINT('',(-20.0000002980232,-31.9999998509884,3.));
#869=CARTESIAN_POINT('',(53.4999997019768,-31.9999998509884,3.));
#870=CARTESIAN_POINT('',(77.9999997019768,8.0000001490116,3.));
#871=CARTESIAN_POINT('',(77.9999997019768,-1.99999985098839,3.));
#872=CARTESIAN_POINT('',(-20.0000002980232,8.0000001490116,3.));
#873=CARTESIAN_POINT('',(4.49999970197678,8.00000014901161,3.));
#874=CARTESIAN_POINT('',(-20.0000002980232,-21.9999998509884,3.));
#875=CARTESIAN_POINT('Origin',(-20.0000002980232,8.00000014901161,0.));
#876=CARTESIAN_POINT('',(77.9999997019768,8.00000014901161,0.));
#877=CARTESIAN_POINT('',(-20.0000002980232,8.0000001490116,0.));
#878=CARTESIAN_POINT('Origin',(77.9999997019768,8.00000014901161,0.));
#879=CARTESIAN_POINT('',(77.9999997019768,-31.9999998509884,0.));
#880=CARTESIAN_POINT('Origin',(-24.0000002980232,12.0000001490116,0.));
#881=CARTESIAN_POINT('',(-27.0000002980232,12.0000001490116,3.1));
#882=CARTESIAN_POINT('Origin',(-24.0000002980232,12.0000001490116,3.1));
#883=CARTESIAN_POINT('',(-27.0000002980232,12.0000001490116,0.));
#884=CARTESIAN_POINT('Origin',(-24.0000002980232,-35.9999998509884,0.));
#885=CARTESIAN_POINT('',(-27.0000002980232,-35.9999998509884,3.1));
#886=CARTESIAN_POINT('Origin',(-24.0000002980232,-35.9999998509884,3.1));
#887=CARTESIAN_POINT('',(-27.0000002980232,-35.9999998509884,0.));
#888=CARTESIAN_POINT('Origin',(81.9999997019768,-35.9999998509884,0.));
#889=CARTESIAN_POINT('',(78.9999997019768,-35.9999998509884,3.1));
#890=CARTESIAN_POINT('Origin',(81.9999997019768,-35.9999998509884,3.1));
#891=CARTESIAN_POINT('',(78.9999997019768,-35.9999998509884,0.));
#892=CARTESIAN_POINT('Origin',(81.9999997019768,12.0000001490116,0.));
#893=CARTESIAN_POINT('',(78.9999997019768,12.0000001490116,3.1));
#894=CARTESIAN_POINT('Origin',(81.9999997019768,12.0000001490116,3.1));
#895=CARTESIAN_POINT('',(78.9999997019768,12.0000001490116,0.));
#896=CARTESIAN_POINT('Origin',(-20.0000002980232,-31.9999998509884,0.));
#897=CARTESIAN_POINT('',(-20.0000002980232,-31.9999998509884,0.));
#898=CARTESIAN_POINT('Origin',(77.9999997019768,-31.9999998509884,0.));
#899=CARTESIAN_POINT('Origin',(86.9999997019768,-40.9999998509884,0.));
#900=CARTESIAN_POINT('Origin',(81.9999997019768,12.0000001490116,3.1));
#901=CARTESIAN_POINT('',(80.2999997019768,12.0000001490116,3.1));
#902=CARTESIAN_POINT('',(80.2999997019768,12.0000001490116,3.1));
#903=CARTESIAN_POINT('Origin',(81.9999997019768,12.0000001490116,3.1));
#904=CARTESIAN_POINT('Origin',(81.9999997019768,12.0000001490116,3.1));
#905=CARTESIAN_POINT('Origin',(81.9999997019768,-35.9999998509884,3.1));
#906=CARTESIAN_POINT('',(80.2999997019768,-35.9999998509884,3.1));
#907=CARTESIAN_POINT('',(80.2999997019768,-35.9999998509884,3.1));
#908=CARTESIAN_POINT('Origin',(81.9999997019768,-35.9999998509884,3.1));
#909=CARTESIAN_POINT('Origin',(81.9999997019768,-35.9999998509884,3.1));
#910=CARTESIAN_POINT('Origin',(-24.0000002980232,-35.9999998509884,3.1));
#911=CARTESIAN_POINT('',(-25.7000002980232,-35.9999998509884,3.1));
#912=CARTESIAN_POINT('',(-25.7000002980232,-35.9999998509884,3.1));
#913=CARTESIAN_POINT('Origin',(-24.0000002980232,-35.9999998509884,3.1));
#914=CARTESIAN_POINT('Origin',(-24.0000002980232,-35.9999998509884,3.1));
#915=CARTESIAN_POINT('Origin',(-24.0000002980232,12.0000001490116,3.1));
#916=CARTESIAN_POINT('',(-25.7000002980232,12.0000001490116,3.1));
#917=CARTESIAN_POINT('',(-25.7000002980232,12.0000001490116,3.1));
#918=CARTESIAN_POINT('Origin',(-24.0000002980232,12.0000001490116,3.1));
#919=CARTESIAN_POINT('Origin',(-24.0000002980232,12.0000001490116,3.1));
#920=UNCERTAINTY_MEASURE_WITH_UNIT(LENGTH_MEASURE(0.01),#924,
'DISTANCE_ACCURACY_VALUE',
'Maximum model space distance between geometric entities at asserted c
onnectivities');
#921=UNCERTAINTY_MEASURE_WITH_UNIT(LENGTH_MEASURE(0.01),#924,
'DISTANCE_ACCURACY_VALUE',
'Maximum model space distance between geometric entities at asserted c
onnectivities');
#922=(
GEOMETRIC_REPRESENTATION_CONTEXT(3)
GLOBAL_UNCERTAINTY_ASSIGNED_CONTEXT((#920))
GLOBAL_UNIT_ASSIGNED_CONTEXT((#924,#926,#927))
REPRESENTATION_CONTEXT('','3D')
);
#923=(
GEOMETRIC_REPRESENTATION_CONTEXT(3)
GLOBAL_UNCERTAINTY_ASSIGNED_CONTEXT((#921))
GLOBAL_UNIT_ASSIGNED_CONTEXT((#924,#926,#927))
REPRESENTATION_CONTEXT('','3D')
);
#924=(
LENGTH_UNIT()
NAMED_UNIT(*)
SI_UNIT(.MILLI.,.METRE.)
);
#925=(
LENGTH_UNIT()
NAMED_UNIT(*)
SI_UNIT($,.METRE.)
);
#926=(
NAMED_UNIT(*)
PLANE_ANGLE_UNIT()
SI_UNIT($,.RADIAN.)
);
#927=(
NAMED_UNIT(*)
SI_UNIT($,.STERADIAN.)
SOLID_ANGLE_UNIT()
);
#928=SHAPE_DEFINITION_REPRESENTATION(#929,#930);
#929=PRODUCT_DEFINITION_SHAPE('',$,#932);
#930=SHAPE_REPRESENTATION('',(#556),#922);
#931=PRODUCT_DEFINITION_CONTEXT('part definition',#936,'design');
#932=PRODUCT_DEFINITION('2026-02-03-21-09-12-869','dorppadback',#933,#931);
#933=PRODUCT_DEFINITION_FORMATION('',$,#938);
#934=PRODUCT_RELATED_PRODUCT_CATEGORY('dorppadback','dorppadback',(#938));
#935=APPLICATION_PROTOCOL_DEFINITION('international standard',
'automotive_design',2009,#936);
#936=APPLICATION_CONTEXT(
'Core Data for Automotive Mechanical Design Process');
#937=PRODUCT_CONTEXT('part definition',#936,'mechanical');
#938=PRODUCT('2026-02-03-21-09-12-869','dorppadback',$,(#937));
#939=PRESENTATION_STYLE_ASSIGNMENT((#940));
#940=SURFACE_STYLE_USAGE(.BOTH.,#941);
#941=SURFACE_SIDE_STYLE('',(#942));
#942=SURFACE_STYLE_FILL_AREA(#943);
#943=FILL_AREA_STYLE('Steel - Satin',(#944));
#944=FILL_AREA_STYLE_COLOUR('Steel - Satin',#945);
#945=COLOUR_RGB('Steel - Satin',0.627450980392157,0.627450980392157,0.627450980392157);
ENDSEC;
END-ISO-10303-21;
